<svg width="400" height="225" viewBox="0 0 400 225" fill="none" xmlns="http://www.w3.org/2000/svg">
  <rect width="400" height="225" fill="#1a1a1a"/>
  <g opacity="0.1">
    <line x1="0" y1="45" x2="400" y2="45" stroke="#4d94ff" stroke-width="0.5"/>
    <line x1="0" y1="90" x2="400" y2="90" stroke="#4d94ff" stroke-width="0.5"/>
    <line x1="0" y1="135" x2="400" y2="135" stroke="#4d94ff" stroke-width="0.5"/>
    <line x1="0" y1="180" x2="400" y2="180" stroke="#4d94ff" stroke-width="0.5"/>
    <line x1="80" y1="0" x2="80" y2="225" stroke="#4d94ff" stroke-width="0.5"/>
    <line x1="160" y1="0" x2="160" y2="225" stroke="#4d94ff" stroke-width="0.5"/>
    <line x1="240" y1="0" x2="240" y2="225" stroke="#4d94ff" stroke-width="0.5"/>
    <line x1="320" y1="0" x2="320" y2="225" stroke="#4d94ff" stroke-width="0.5"/>
  </g>
  <circle cx="100" cy="70" r="30" fill="#4d94ff" opacity="0.2"/>
  <circle cx="300" cy="70" r="30" fill="#4d94ff" opacity="0.2"/>
  <rect x="50" y="130" width="100" height="60" rx="4" fill="#4d94ff" opacity="0.15"/>
  <rect x="250" y="130" width="100" height="60" rx="4" fill="#4d94ff" opacity="0.15"/>
  <path d="M100 70 L300 70 M100 70 L150 130 M300 70 L250 130 M150 130 L250 130" stroke="#4d94ff" stroke-width="2" opacity="0.4"/>
  <text x="200" y="115" font-family="monospace" font-size="12" fill="#4d94ff" text-anchor="middle" opacity="0.6">COMBAT SYSTEM</text>
</svg>
