<svg width="400" height="225" viewBox="0 0 400 225" fill="none" xmlns="http://www.w3.org/2000/svg">
  <rect width="400" height="225" fill="#1a1a1a"/>
  <g opacity="0.1">
    <line x1="0" y1="45" x2="400" y2="45" stroke="#4d94ff" stroke-width="0.5"/>
    <line x1="0" y1="90" x2="400" y2="90" stroke="#4d94ff" stroke-width="0.5"/>
    <line x1="0" y1="135" x2="400" y2="135" stroke="#4d94ff" stroke-width="0.5"/>
    <line x1="0" y1="180" x2="400" y2="180" stroke="#4d94ff" stroke-width="0.5"/>
    <line x1="80" y1="0" x2="80" y2="225" stroke="#4d94ff" stroke-width="0.5"/>
    <line x1="160" y1="0" x2="160" y2="225" stroke="#4d94ff" stroke-width="0.5"/>
    <line x1="240" y1="0" x2="240" y2="225" stroke="#4d94ff" stroke-width="0.5"/>
    <line x1="320" y1="0" x2="320" y2="225" stroke="#4d94ff" stroke-width="0.5"/>
  </g>
  <ellipse cx="200" cy="170" rx="100" ry="15" fill="#4d94ff" opacity="0.2"/>
  <rect x="170" y="90" width="60" height="80" rx="30" fill="none" stroke="#4d94ff" stroke-width="2" opacity="0.4"/>
  <circle cx="200" cy="70" r="20" fill="none" stroke="#4d94ff" stroke-width="2" opacity="0.4"/>
  <path d="M230 100 L270 120 M170 100 L130 120" stroke="#4d94ff" stroke-width="2" opacity="0.4"/>
  <path d="M230 150 L270 170 M170 150 L130 170" stroke="#4d94ff" stroke-width="2" opacity="0.4"/>
  <path d="M140 120 L140 90 L120 70 M260 120 L260 90 L280 70" stroke="#4d94ff" stroke-width="2" opacity="0.3" stroke-dasharray="3,3"/>
  <text x="200" y="205" font-family="monospace" font-size="12" fill="#4d94ff" text-anchor="middle" opacity="0.6">MOVEMENT</text>
</svg>
