<svg width="400" height="225" viewBox="0 0 400 225" fill="none" xmlns="http://www.w3.org/2000/svg">
  <rect width="400" height="225" fill="#1a1a1a"/>
  <g opacity="0.1">
    <line x1="0" y1="45" x2="400" y2="45" stroke="#4d94ff" stroke-width="0.5"/>
    <line x1="0" y1="90" x2="400" y2="90" stroke="#4d94ff" stroke-width="0.5"/>
    <line x1="0" y1="135" x2="400" y2="135" stroke="#4d94ff" stroke-width="0.5"/>
    <line x1="0" y1="180" x2="400" y2="180" stroke="#4d94ff" stroke-width="0.5"/>
    <line x1="80" y1="0" x2="80" y2="225" stroke="#4d94ff" stroke-width="0.5"/>
    <line x1="160" y1="0" x2="160" y2="225" stroke="#4d94ff" stroke-width="0.5"/>
    <line x1="240" y1="0" x2="240" y2="225" stroke="#4d94ff" stroke-width="0.5"/>
    <line x1="320" y1="0" x2="320" y2="225" stroke="#4d94ff" stroke-width="0.5"/>
  </g>
  <circle cx="200" cy="112" r="60" fill="none" stroke="#4d94ff" stroke-width="2" opacity="0.3"/>
  <circle cx="200" cy="112" r="40" fill="none" stroke="#4d94ff" stroke-width="2" opacity="0.4"/>
  <circle cx="200" cy="112" r="20" fill="#4d94ff" opacity="0.5"/>
  <circle cx="260" cy="80" r="15" fill="#4d94ff" opacity="0.3"/>
  <circle cx="140" cy="80" r="15" fill="#4d94ff" opacity="0.3"/>
  <circle cx="260" cy="144" r="15" fill="#4d94ff" opacity="0.3"/>
  <circle cx="140" cy="144" r="15" fill="#4d94ff" opacity="0.3"/>
  <path d="M200 112 L260 80 M200 112 L140 80 M200 112 L260 144 M200 112 L140 144" stroke="#4d94ff" stroke-width="1.5" opacity="0.4"/>
  <text x="200" y="205" font-family="monospace" font-size="12" fill="#4d94ff" text-anchor="middle" opacity="0.6">AI DIRECTOR</text>
</svg>
