<svg width="400" height="225" viewBox="0 0 400 225" fill="none" xmlns="http://www.w3.org/2000/svg">
  <rect width="400" height="225" fill="#1a1a1a"/>
  <g opacity="0.1">
    <line x1="0" y1="45" x2="400" y2="45" stroke="#4d94ff" stroke-width="0.5"/>
    <line x1="0" y1="90" x2="400" y2="90" stroke="#4d94ff" stroke-width="0.5"/>
    <line x1="0" y1="135" x2="400" y2="135" stroke="#4d94ff" stroke-width="0.5"/>
    <line x1="0" y1="180" x2="400" y2="180" stroke="#4d94ff" stroke-width="0.5"/>
    <line x1="80" y1="0" x2="80" y2="225" stroke="#4d94ff" stroke-width="0.5"/>
    <line x1="160" y1="0" x2="160" y2="225" stroke="#4d94ff" stroke-width="0.5"/>
    <line x1="240" y1="0" x2="240" y2="225" stroke="#4d94ff" stroke-width="0.5"/>
    <line x1="320" y1="0" x2="320" y2="225" stroke="#4d94ff" stroke-width="0.5"/>
  </g>
  <path d="M100 100 L130 70 L180 90 L200 60" stroke="#4d94ff" stroke-width="3" fill="none" opacity="0.4"/>
  <rect x="220" y="80" width="60" height="80" rx="4" fill="none" stroke="#4d94ff" stroke-width="2" opacity="0.3"/>
  <circle cx="250" cy="100" r="6" fill="#4d94ff" opacity="0.5"/>
  <circle cx="250" cy="120" r="6" fill="#4d94ff" opacity="0.5"/>
  <circle cx="250" cy="140" r="6" fill="#4d94ff" opacity="0.5"/>
  <rect x="230" y="95" width="40" height="5" rx="2" fill="#4d94ff" opacity="0.3"/>
  <rect x="230" y="115" width="40" height="5" rx="2" fill="#4d94ff" opacity="0.3"/>
  <rect x="230" y="135" width="40" height="5" rx="2" fill="#4d94ff" opacity="0.3"/>
  <path d="M100 100 L100 160 L140 160" stroke="#4d94ff" stroke-width="2" opacity="0.4"/>
  <circle cx="140" cy="160" r="8" fill="#4d94ff" opacity="0.5"/>
  <text x="200" y="205" font-family="monospace" font-size="12" fill="#4d94ff" text-anchor="middle" opacity="0.6">WEAPON SYSTEM</text>
</svg>
